<svg id="Capa_1" enable-background="new 0 0 508.01 508.01" height="512" viewBox="0 0 508.01 508.01" width="512" xmlns="http://www.w3.org/2000/svg"><g><circle cx="254.005" cy="254.005" fill="#a7bdcd" r="244"/><path d="m259.675 116.395-6.25-23.58c-4.87-18.35-22.98-29.89-41.67-26.56-22.11 3.94-42.48 14.57-58.37 30.45-5.31 5.31-12.52 8.3-20.04 8.3-15.65 0-28.34-12.69-28.34-28.34v-15.9c-57.78 44.62-95 114.58-95 193.24v.39c16.73 2.17 31.23 13.21 37.62 29.16 4.8 11.97 17.47 18.81 30.62 16.13 11.8-2.4 23.23 3.49 28.65 14.24l25.64 50.84c5.76 11.41 19.12 16.75 31.16 12.44l42.94-15.36c11.73-4.2 18.67-16.31 16.36-28.55l-10.54-55.81c-2.26-11.98 4.06-23.95 15.23-28.85 11.18-4.89 17.65-17.19 15.14-29.31l-9.56-46.08c-2.32-11.21 2.84-22.01 13.37-27.75 10.53-5.73 16.11-17.53 13.04-29.1zm-165.17 139.61c-12.426 0-22.5-10.074-22.5-22.5s10.074-22.5 22.5-22.5c12.427 0 22.5 10.074 22.5 22.5s-10.073 22.5-22.5 22.5zm67.5-55c-16.016 0-29-12.984-29-29s12.984-29 29-29 29 12.984 29 29-12.984 29-29 29zm189-113c-23.196 0-42 18.804-42 42s18.804 42 42 42 42-18.804 42-42-18.804-42-42-42zm73.5 97c-13.531 0-24.5 10.969-24.5 24.5s10.969 24.5 24.5 24.5 24.5-10.969 24.5-24.5-10.969-24.5-24.5-24.5zm-43 81c-11.874 0-21.5 9.626-21.5 21.5s9.626 21.5 21.5 21.5 21.5-9.626 21.5-21.5-9.626-21.5-21.5-21.5z" fill="#e2e9ee"/><path d="m62.005 233.505c0 17.92 14.58 32.5 32.5 32.5s32.5-14.58 32.5-32.5-14.58-32.5-32.5-32.5-32.5 14.58-32.5 32.5zm45 0c0 6.893-5.607 12.5-12.5 12.5s-12.5-5.607-12.5-12.5 5.607-12.5 12.5-12.5 12.5 5.608 12.5 12.5zm55-22.5c21.505 0 39-17.495 39-39s-17.495-39-39-39-39 17.495-39 39 17.495 39 39 39zm0-58c10.477 0 19 8.523 19 19s-8.523 19-19 19-19-8.523-19-19 8.524-19 19-19zm189-75c-28.673 0-52 23.327-52 52s23.327 52 52 52 52-23.327 52-52-23.327-52-52-52zm0 84c-17.645 0-32-14.355-32-32s14.355-32 32-32 32 14.355 32 32-14.355 32-32 32zm108 47.5c0-19.023-15.477-34.5-34.5-34.5s-34.5 15.477-34.5 34.5 15.477 34.5 34.5 34.5 34.5-15.476 34.5-34.5zm-49 0c0-7.995 6.505-14.5 14.5-14.5s14.5 6.505 14.5 14.5-6.505 14.5-14.5 14.5-14.5-6.505-14.5-14.5zm-60 78c0 17.369 14.131 31.5 31.5 31.5s31.5-14.131 31.5-31.5-14.131-31.5-31.5-31.5-31.5 14.131-31.5 31.5zm43 0c0 6.341-5.159 11.5-11.5 11.5s-11.5-5.159-11.5-11.5 5.159-11.5 11.5-11.5 11.5 5.159 11.5 11.5zm54.606-197.916c-90.804-106.926-251.097-119.994-358.022-29.19-94.803 80.51-115.824 215.644-56.084 319.775v-.01c6.604 11.517 23.953 1.568 17.348-9.949-18.31-31.925-28.381-67.012-30.451-102.354 8.036 3.989 14.5 10.836 17.938 19.415 6.599 16.466 24.219 25.808 41.899 22.208 7.282-1.483 14.243 2.028 17.729 8.941l25.64 50.839c6.148 12.19 18.572 19.42 31.59 19.42 3.952 0 7.96-.667 11.862-2.063l42.94-15.362c16.465-5.891 26.062-22.639 22.818-39.823l-10.533-55.801c-1.408-7.457 2.463-14.791 9.414-17.835 15.571-6.822 24.367-23.854 20.915-40.5l-9.557-46.084c-1.445-6.968 1.679-13.299 8.356-16.935 14.745-8.029 22.118-24.661 17.93-40.447l-6.258-23.586c-6.151-23.185-29.467-38.054-53.082-33.841-24.249 4.321-46.271 15.811-63.687 33.227-3.465 3.464-8.071 5.373-12.97 5.373-10.114 0-18.342-8.229-18.342-18.342v-10.913c98.146-72.619 237.169-57.648 317.363 36.783 83.655 98.506 71.615 246.177-26.891 329.832-87.334 74.167-213.312 73.115-299.062 3.276-10.341-8.413-22.938 7.069-12.598 15.483l-.116-.039c93.081 75.889 229.891 77.06 324.723-3.474 106.924-90.806 119.993-251.099 29.188-358.024zm-314.264 25.416c10.241 0 19.87-3.988 27.112-11.23 14.508-14.508 32.854-24.08 53.054-27.68 13.447-2.399 26.737 6.07 30.241 19.28l6.258 23.586c1.816 6.847-1.541 14.147-8.164 17.753-14.395 7.838-21.608 22.975-18.375 38.562l9.557 46.084c1.544 7.447-2.391 15.068-9.357 18.12-15.535 6.806-24.188 23.198-21.042 39.865l10.533 55.801c1.408 7.457-2.756 14.725-9.902 17.282l-42.938 15.363c-7.273 2.601-15.379-.637-18.857-7.532l-25.64-50.839c-7.547-14.964-23.45-22.813-39.575-19.533-8.337 1.697-16.295-2.435-19.347-10.049-6.545-16.331-20.212-28.586-36.775-33.489 2.005-60.69 27.487-120.393 75.243-164.369 2.595 18.634 18.636 33.025 37.974 33.025zm-55.337 296.936c0 5.521-4.475 9.996-9.996 9.996-5.52 0-9.996-4.475-9.996-9.996s4.475-9.996 9.996-9.996c5.52 0 9.996 4.475 9.996 9.996z"/></g></svg>